<svg width="85" height="111" viewBox="0 0 85 111" fill="none" xmlns="http://www.w3.org/2000/svg">
<g id="Vector" filter="url(#filter0_f_199_143)">
<path d="M65.4067 84.038C58.6577 91.7516 52.4596 98.8329 44.3332 102.753C36.0691 106.546 26.0144 107.179 18.3013 103.765C10.5881 100.224 5.21642 92.7632 -1.11941 86.82C-7.3175 80.8767 -14.342 76.5774 -21.2288 69.4961C-28.2533 62.2883 -35.0023 52.4251 -31.4212 46.3554C-27.8401 40.1593 -13.9288 37.7567 -4.56279 31.4341C4.80321 25.1115 9.76168 14.8689 18.3013 9.81085C26.7031 4.62632 38.8238 4.75277 47.5012 9.81085C56.3162 14.7425 61.6879 24.6057 67.6105 33.7102C73.6709 42.9412 80.1444 51.5399 79.8689 59.8857C79.4557 68.358 72.1558 76.4509 65.4067 84.038Z" fill="url(#paint0_linear_199_143)"/>
</g>
<defs>
<filter id="filter0_f_199_143" x="-37.4126" y="0.969727" width="122.29" height="110.027" filterUnits="userSpaceOnUse" color-interpolation-filters="sRGB">
<feFlood flood-opacity="0" result="BackgroundImageFix"/>
<feBlend mode="normal" in="SourceGraphic" in2="BackgroundImageFix" result="shape"/>
<feGaussianBlur stdDeviation="2.5" result="effect1_foregroundBlur_199_143"/>
</filter>
<linearGradient id="paint0_linear_199_143" x1="-32.4126" y1="5.96973" x2="66.9491" y2="117.513" gradientUnits="userSpaceOnUse">
<stop stop-color="#3790F8"/>
<stop offset="1" stop-color="#FBA81F"/>
</linearGradient>
</defs>
</svg>
